<?xml version="1.0" standalone="no"?><!DOCTYPE svg PUBLIC "-//W3C//DTD SVG 1.1//EN" "http://www.w3.org/Graphics/SVG/1.1/DTD/svg11.dtd"><svg t="1517894349973" class="icon" style="" viewBox="0 0 1024 1024" version="1.1" xmlns="http://www.w3.org/2000/svg" p-id="2857" xmlns:xlink="http://www.w3.org/1999/xlink" width="150" height="150"><defs><style type="text/css"></style></defs><path d="M426.857143 869.142857q42.285714 18.285714 80 18.285714 214.857143 0 214.857143-191.428571 0-65.142857-23.428571-102.857143-15.428571-25.142857-35.142857-42.285714t-38.571429-26.571429-46-14.285714-48-6-54-1.142857q-41.714286 0-57.714286 5.714286 0 30.285714 2.857143 90.857143t2.857143 90.285714q0 4.571429-0.571429 38.571429t2.857143 55.142857 2.571429 47.714286 6.857143 38zm-8-426.285714q24 4 62.285714 4 46.857143 0 81.714286-7.428571t62.857143-25.428571 42.571429-51.142857 14.571429-81.142857q0-40-16.571429-70t-45.142857-46.857143-61.714286-24.857143-70.857143-8q-28.571429 0-74.285714 7.428571 0 28.571429 2.285714 86.285714t2.285714 86.857143q0 15.428571 2.857143 45.714286t2.857143 45.142857q0 26.285714 0.571429 39.428571zm-309.142857 508l1.142857-53.714286q8.571429-2.285714 48.571429-9.142857t60.571429-15.428571q4-6.857143 7.142857-15.428571t4.857143-19.142857 3.142857-18.571429 1.714286-21.428571 2.857143-19.428571l0-37.428571q0-561.142857-12.571429-585.714286-2.285714-4.571429-12.571429-8.285714t-25.428571-6.285714-28.285714-4-27.714286-2.571429-17.428571-1.714286l-2.285714-47.428571q56-1.142857 194.285714-6.571429t213.142857-5.428571q13.142857 0 39.142857 2.857143t38.571429 2.857143q40 0 78 7.428571t73.428571 24 61.714286 40.571429 42.285714 59.714286 16 78.571429q0 29.714286-9.428571 54.571429t-22.285714 41.142857-36.857143 32.857143-41.714286 25.714286-48 22.857143q88 20 146.571429 76.571429t58.571429 141.714286q0 57.142857-20 102.571429t-53.428571 74.571429-78.857143 48.857143-93.428571 27.714286-100.571429 8q-25.142857 0-75.428571-1.714286t-75.428571-1.714286q-60.571429 0-175.428571 6.285714t-132 6.857143z" p-id="2858"></path></svg>