<?xml version="1.0" standalone="no"?><!DOCTYPE svg PUBLIC "-//W3C//DTD SVG 1.1//EN" "http://www.w3.org/Graphics/SVG/1.1/DTD/svg11.dtd"><svg class="icon" width="300px" height="300.00px" viewBox="0 0 1024 1024" version="1.1" xmlns="http://www.w3.org/2000/svg"><path fill="#515151" d="M799.888 611.683c6.35 20.030 9.525 40.949 9.525 62.768 0 74.173-24.797 130.789-74.37 169.859-49.583 39.069-122.56 58.605-218.948 58.605h-295.099v-785.347h279.629c40.859 0 77.942 4.668 111.263 13.985 33.313 9.317 61.672 22.611 85.073 39.861 23.402 17.259 41.452 38.278 54.143 63.065s19.040 52.65 19.040 83.589c0 38.476-9.327 71.393-27.963 98.762-18.644 27.368-47.002 50.177-85.083 68.425 25.381 5.945 47.595 15.173 66.636 27.666 19.040 12.493 34.906 27.072 47.595 43.728 12.691 16.657 22.215 35.004 28.555 55.034zM701.127 674.451c0-23.402-3.174-43.629-9.516-60.691-6.35-17.052-17.259-31.137-32.729-42.235-15.47-11.107-36.092-19.337-61.868-24.697-25.785-5.351-57.912-8.032-96.388-8.032h-175.507v270.708h190.383c123.757 0 185.625-45.014 185.625-135.053zM667.813 326.989c0-19.427-3.076-36.389-9.228-50.86-6.142-14.48-16.261-26.577-30.337-36.3-14.084-9.713-32.432-16.953-55.034-21.712-22.611-4.758-50.375-7.141-83.292-7.141h-164.805v235.604h174.914c57.516 0 99.85-9.12 127.021-27.368s40.76-48.989 40.76-92.224z" /></svg>