<?xml version="1.0" standalone="no"?><!DOCTYPE svg PUBLIC "-//W3C//DTD SVG 1.1//EN" "http://www.w3.org/Graphics/SVG/1.1/DTD/svg11.dtd"><svg class="icon" width="300px" height="300.00px" viewBox="0 0 1024 1024" version="1.1" xmlns="http://www.w3.org/2000/svg"><path fill="#515151" d="M919.084032 460.637184 567.256064 177.59232c-37.8112-30.416896-68.517888-8.114176-68.517888 45.422592 0 16.234496 0 72.042496 0 143.183872l-6.380544 0c-220.652544 0-412.688384 254.962688-415.73376 481.719296 0 18.057216 14.67392 23.09632 28.664832 0 71.416832-127.261696 187.874304-193.225728 340.540416-193.225728l52.909056 0c0 76.507136 0 136.531968 0 151.04 0 45.059072 33.293312 75.886592 71.145472 45.544448l349.14816-280.126464C956.87168 540.78464 956.895232 491.063296 919.084032 460.637184z" /></svg>