<?xml version="1.0" standalone="no"?><!DOCTYPE svg PUBLIC "-//W3C//DTD SVG 1.1//EN" "http://www.w3.org/Graphics/SVG/1.1/DTD/svg11.dtd"><svg t="1517837539853" class="icon" style="" viewBox="0 0 1024 1024" version="1.1" xmlns="http://www.w3.org/2000/svg" p-id="3425" xmlns:xlink="http://www.w3.org/1999/xlink" width="150" height="150"><defs><style type="text/css"></style></defs><path d="M191.92288 949.728l9.728-48.576q3.424-1.152 46.56-12.288t63.712-21.44q16-20 23.424-57.728 0.576-4 35.424-165.152t65.152-310.56 29.728-169.44l0-14.272q-13.728-7.424-31.136-10.56t-39.712-4.576-33.152-3.136l10.848-58.848q18.848 1.152 68.576 3.712t85.44 4 68.864 1.44q27.424 0 56.288-1.44t69.152-4 56.288-3.712q-2.848 22.272-10.848 50.848-17.152 5.728-58.016 16.288t-62.016 19.136q-4.576 10.848-8 24.288t-5.152 22.848-4.288 26.016-3.712 24q-15.424 84.576-50.016 239.712t-44.288 203.136q-1.152 5.152-7.424 33.152t-11.424 51.424-9.152 47.712-3.424 32.864l0.576 10.272q9.728 2.272 105.728 17.728-1.728 25.152-9.152 56.576-6.272 0-18.56 0.864t-18.56 0.864q-16.576 0-49.728-5.728t-49.152-5.728q-78.848-1.152-117.728-1.152-29.152 0-81.728 5.152t-69.152 6.272z" p-id="3426"></path></svg>