<?xml version="1.0" standalone="no"?><!DOCTYPE svg PUBLIC "-//W3C//DTD SVG 1.1//EN" "http://www.w3.org/Graphics/SVG/1.1/DTD/svg11.dtd"><svg class="icon" width="300px" height="300.00px" viewBox="0 0 1024 1024" version="1.1" xmlns="http://www.w3.org/2000/svg"><path fill="#515151" d="M120 460.544L85.76 435.2c10.944-25.28 29.952-39.424 54.656-46.144 32.448-8.832 69.888 3.008 86.08 27.328 21.312 32.128 12.544 73.344-22.144 100.48-13.952 10.944-29.568 19.84-43.392 30.784-7.872 6.464-13.888 15.424-20.736 23.296a32 32 0 0 1 2.56 3.264h55.04v-26.752h44.416v71.744c-3.008 0.256-6.72 1.088-10.368 1.088-45.12 0.128-90.368 0-135.488 0.256-8.96 0.192-11.968-2.752-13.12-11.84-4.992-38.656 12.544-66.688 38.528-90.176 10.432-9.408 22.656-16.64 33.6-25.408 6.72-5.44 13.184-11.456 18.56-18.24 7.168-9.024 10.56-19.392 3.008-30.336-5.76-8.576-20.224-12.096-30.976-5.632-9.216 5.632-16.896 13.952-25.984 21.632z m52.288 278.592h-38.656l-1.152 23.808h-45.12v-67.968H230.4c1.472 21.056 4.544 41.088-12.864 57.984-9.792 9.408-17.024 21.504-25.216 32.448 0.576 1.216 0.768 2.432 1.344 2.56 33.28 15.552 45.568 33.664 44.608 66.368-0.896 30.784-18.816 55.616-49.216 67.712-36.16 14.464-83.648 3.904-107.84-24.704l21.76-35.712c15.936 6.08 30.08 13.504 45.12 16.448 18.112 3.456 33.024-7.744 34.24-22.208 1.216-13.504-4.8-22.976-17.472-26.816a90.56 90.56 0 0 0-13.184-2.56c-15.104-1.408-20.48-5.888-23.424-21.824-0.576-3.328 1.408-8.064 3.456-10.816 12.992-18.112 26.432-35.712 40.576-54.72z m66.496-458.368v44.224H94.592V280.96h45.248V166.528l-19.712 19.648-34.304-31.296c19.776-19.52 37.952-37.568 56.512-55.488a14.208 14.208 0 0 1 8.704-3.648c13.376-0.32 26.688-0.128 41.92-0.128v185.152h45.824z m135.296-11.328h467.84a58.432 58.432 0 1 0 0-116.864h-467.84a58.432 58.432 0 0 0 0 116.864z m0 292.48h467.84a58.432 58.432 0 0 0 0-116.928h-467.84a58.56 58.56 0 0 0-4.032 116.928h4.032z m0 292.352h467.84a58.496 58.496 0 1 0 0-116.992h-467.84a58.56 58.56 0 0 0 0 116.992z" /></svg>