<?xml version="1.0" standalone="no"?><!DOCTYPE svg PUBLIC "-//W3C//DTD SVG 1.1//EN" "http://www.w3.org/Graphics/SVG/1.1/DTD/svg11.dtd"><svg class="icon" width="300px" height="300.00px" viewBox="0 0 1024 1024" version="1.1" xmlns="http://www.w3.org/2000/svg"><path fill="#515151" d="M857.9 171H168c-38.1 0-69 30.9-69 69v552c0 38.1 30.9 69 69 69h690c38.1 0 69-30.9 69-69V240c-0.1-38.1-30.9-69-69.1-69z m0 551.9c0 38.1-30.9 69-69 69H237c-8 0-15.5-1.6-22.7-4.1L375 653.9l138 103.5 172.5-207 172.5 138v34.5h-0.1z m0-138L685.5 447 513 653.9 375 550.4 168 722.9V309c0-38.1 30.9-69 69-69h552c38.1 0 69 30.9 69 69v275.9h-0.1z"  /><path fill="#515151" d="M341.7 343.5c-38.1 0-69 30.9-69 69s30.9 69 69 69 69-30.9 69-69c0-38.2-30.9-69-69-69z"  /></svg>