<?xml version="1.0" standalone="no"?><!DOCTYPE svg PUBLIC "-//W3C//DTD SVG 1.1//EN" "http://www.w3.org/Graphics/SVG/1.1/DTD/svg11.dtd"><svg class="icon" width="300px" height="300.00px" viewBox="0 0 1024 1024" version="1.1" xmlns="http://www.w3.org/2000/svg"><path fill="#515151" d="M861.184 751.488H380.352a60.096 60.096 0 0 0 0 119.936h480.768a60.032 60.032 0 1 0 0.064-119.936zM380.352 272.256h480.768a59.968 59.968 0 1 0 0-119.808H380.352c-32.32 1.088-58.048 27.584-58.048 59.904s25.728 58.816 58.048 59.904z m0 299.584h480.768a59.968 59.968 0 0 0 0-119.808H380.352a60.288 60.288 0 0 0-53.76 29.376 59.776 59.776 0 0 0 53.76 90.432z m-216.96-424.192c-37.952 0-68.8 30.656-68.8 68.544 0 37.824 30.848 68.544 68.8 68.544s68.8-30.656 68.8-68.544a68.736 68.736 0 0 0-68.8-68.544z m0 313.344c-37.952 0-68.8 30.656-68.8 68.544 0 37.824 30.848 68.544 68.8 68.544s68.8-30.656 68.8-68.544-30.848-68.544-68.8-68.544z m0 274.112c-37.952 0-68.8 30.656-68.8 68.544 0 37.824 30.848 68.544 68.8 68.544s68.8-30.656 68.8-68.544a68.736 68.736 0 0 0-68.8-68.544z" /></svg>