<?xml version="1.0" standalone="no"?><!DOCTYPE svg PUBLIC "-//W3C//DTD SVG 1.1//EN" "http://www.w3.org/Graphics/SVG/1.1/DTD/svg11.dtd"><svg t="1517837721126" class="icon" style="" viewBox="0 0 1024 1024" version="1.1" xmlns="http://www.w3.org/2000/svg" p-id="3917" xmlns:xlink="http://www.w3.org/1999/xlink" width="150" height="150"><defs><style type="text/css"></style></defs><path d="M100.49879 127.414857q-21.138286-1.170286-25.746286-2.267429l-1.682286-50.322286q7.460571-0.585143 22.820571-0.585143 34.304 0 64 2.267429 75.410286 4.022857 94.866286 4.022857 49.152 0 96.036571-1.682286 66.267429-2.267429 83.456-2.852571 32.036571 0 49.152-1.170286l-0.585143 7.972571 1.170286 36.571429 0 5.12q-34.304 5.12-70.875429 5.12-34.304 0-45.129143 14.262857-7.460571 7.972571-7.460571 75.410286 0 7.460571 0.292571 18.578286t0.292571 14.555429l0.585143 130.852571 7.972571 160.036571q3.437714 70.875429 29.110857 115.419429 19.968 33.718857 54.857143 52.589714 50.322286 26.843429 101.156571 26.843429 59.465143 0 109.129143-16.018286 32.036571-10.313143 56.539429-29.110857 27.428571-20.553143 37.156571-36.571429 20.553143-32.036571 30.281143-65.170286 11.995429-41.691429 11.995429-130.852571 0-45.129143-1.974857-73.142857t-6.290286-69.997714-7.68-91.136l-2.267429-33.718857q-2.852571-38.253714-13.677714-50.322286-19.456-19.968-44.032-19.456l-57.124571 1.170286-7.972571-1.682286 1.170286-49.152 47.981714 0 117.174857 5.705143q43.446857 1.682286 111.981714-5.705143l10.313143 1.170286q3.437714 21.723429 3.437714 29.110857 0 4.022857-2.267429 17.700571-25.746286 6.875429-47.981714 7.460571-41.691429 6.290286-45.129143 9.728-8.557714 8.557714-8.557714 23.405714 0 4.022857 0.877714 15.433143t0.877714 17.700571q4.534857 10.825143 12.580571 226.304 3.437714 111.396571-8.557714 173.714286-8.557714 43.446857-23.405714 69.705143-21.723429 37.156571-64 70.290286-42.861714 32.548571-104.009143 50.834286-62.317714 18.870857-145.700571 18.870857-95.451429 0-162.304-26.258286-68.022857-26.843429-102.253714-69.705143-34.889143-43.446857-47.396571-111.396571-9.142857-45.714286-9.142857-135.460571l0-190.317714q0-107.446857-9.728-121.709714-14.262857-20.553143-83.968-22.308571zM950.784504 932.571429l0-36.571429q0-7.972571-5.12-13.165714t-13.165714-5.12l-841.142857 0q-7.972571 0-13.165714 5.12t-5.12 13.165714l0 36.571429q0 7.972571 5.12 13.165714t13.165714 5.12l841.142857 0q7.972571 0 13.165714-5.12t5.12-13.165714z" p-id="3918"></path></svg>